<svg xmlns="http://www.w3.org/2000/svg" viewBox="0 0 100 100">
  <!-- Sunflower petals -->
  <g transform="translate(50, 50)">
    <!-- Outer petals -->
    <ellipse cx="0" cy="-32" rx="8" ry="18" fill="#FFD700" transform="rotate(0)"/>
    <ellipse cx="0" cy="-32" rx="8" ry="18" fill="#FFC000" transform="rotate(24)"/>
    <ellipse cx="0" cy="-32" rx="8" ry="18" fill="#FFD700" transform="rotate(48)"/>
    <ellipse cx="0" cy="-32" rx="8" ry="18" fill="#FFC000" transform="rotate(72)"/>
    <ellipse cx="0" cy="-32" rx="8" ry="18" fill="#FFD700" transform="rotate(96)"/>
    <ellipse cx="0" cy="-32" rx="8" ry="18" fill="#FFC000" transform="rotate(120)"/>
    <ellipse cx="0" cy="-32" rx="8" ry="18" fill="#FFD700" transform="rotate(144)"/>
    <ellipse cx="0" cy="-32" rx="8" ry="18" fill="#FFC000" transform="rotate(168)"/>
    <ellipse cx="0" cy="-32" rx="8" ry="18" fill="#FFD700" transform="rotate(192)"/>
    <ellipse cx="0" cy="-32" rx="8" ry="18" fill="#FFC000" transform="rotate(216)"/>
    <ellipse cx="0" cy="-32" rx="8" ry="18" fill="#FFD700" transform="rotate(240)"/>
    <ellipse cx="0" cy="-32" rx="8" ry="18" fill="#FFC000" transform="rotate(264)"/>
    <ellipse cx="0" cy="-32" rx="8" ry="18" fill="#FFD700" transform="rotate(288)"/>
    <ellipse cx="0" cy="-32" rx="8" ry="18" fill="#FFC000" transform="rotate(312)"/>
    <ellipse cx="0" cy="-32" rx="8" ry="18" fill="#FFD700" transform="rotate(336)"/>
    <!-- Center circle -->
    <circle cx="0" cy="0" r="18" fill="#8B4513"/>
    <circle cx="0" cy="0" r="14" fill="#654321"/>
    <!-- Seed pattern dots -->
    <circle cx="0" cy="-5" r="2" fill="#3D2314"/>
    <circle cx="4" cy="-3" r="2" fill="#3D2314"/>
    <circle cx="4" cy="3" r="2" fill="#3D2314"/>
    <circle cx="0" cy="5" r="2" fill="#3D2314"/>
    <circle cx="-4" cy="3" r="2" fill="#3D2314"/>
    <circle cx="-4" cy="-3" r="2" fill="#3D2314"/>
  </g>
</svg>
